<?xml version="1.0" encoding="UTF-8" standalone="no"?><svg xmlns="http://www.w3.org/2000/svg" xmlns:xlink="http://www.w3.org/1999/xlink" fill="#000000" height="44" preserveAspectRatio="xMidYMid meet" version="1" viewBox="0.0 0.0 44.9 44.0" width="44.9" zoomAndPan="magnify"><g fill="#ffffff" id="change1_1"><path d="M 43.628906 17.96875 C 43.445312 16.953125 42.425781 16.257812 41.40625 16.441406 C 40.386719 16.628906 39.695312 17.648438 39.878906 18.664062 C 40.0625 19.730469 40.203125 20.84375 40.203125 21.953125 C 40.203125 32.003906 32.050781 40.15625 22 40.15625 C 11.949219 40.15625 3.796875 32.050781 3.796875 22 C 3.796875 11.949219 11.949219 3.796875 22 3.796875 C 24.457031 3.796875 26.863281 4.261719 29.085938 5.234375 C 30.058594 5.652344 31.167969 5.1875 31.589844 4.214844 C 32.003906 3.242188 31.539062 2.132812 30.570312 1.714844 C 27.835938 0.601562 24.964844 0 22 0 C 9.863281 0 0 9.863281 0 22 C 0 34.136719 9.863281 44 22 44 C 34.136719 44 44 34.136719 44 22 C 44 20.609375 43.859375 19.269531 43.628906 17.96875"/><path d="M 16.859375 16.488281 C 14.589844 13.199219 9.171875 16.347656 11.484375 19.636719 C 14.265625 23.621094 16.8125 27.789062 19.589844 31.773438 C 20.933594 33.671875 23.667969 33.855469 24.964844 31.773438 C 30.058594 23.527344 35.339844 15.515625 42.101562 8.523438 C 44.878906 5.652344 40.480469 1.203125 37.703125 4.121094 C 31.726562 10.328125 26.769531 17.277344 22.183594 24.5 C 20.425781 21.816406 18.710938 19.128906 16.859375 16.488281"/></g></svg>